<?xml version="1.0" standalone="no"?><!DOCTYPE svg PUBLIC "-//W3C//DTD SVG 1.1//EN" "http://www.w3.org/Graphics/SVG/1.1/DTD/svg11.dtd"><svg t="1508484915614" class="icon" style="" viewBox="0 0 1024 1024" version="1.1" xmlns="http://www.w3.org/2000/svg" p-id="3718" xmlns:xlink="http://www.w3.org/1999/xlink" width="180" height="180"><defs><style type="text/css"></style></defs><path d="M82.766165 996.693333 219.158471 841.71462 355.550777 996.693333 491.943083 841.71462 628.335389 996.693333 764.727692 841.71462 901.12 996.693333 900.273835 447.315988C900.325048 222.966641 714.635639 40.96 490.489384 40.96 266.343132 40.96 81.92 222.915065 81.92 447.315988L82.766165 996.693333ZM312.790619 456.805704C268.493952 456.805704 232.646939 420.755081 232.646939 376.246238 232.646939 331.737388 268.493952 295.63519 312.790619 295.63519 357.087285 295.63519 392.934298 331.788964 392.934298 376.246238 392.934298 420.703512 357.087285 456.805704 312.790619 456.805704L312.790619 456.805704 312.790619 456.805704ZM589.631982 373.925383C589.631982 328.900785 626.042305 292.385997 670.953492 292.385997 715.915889 292.385997 752.275002 328.900785 752.275002 373.925383 752.275002 418.898398 715.915889 455.361618 670.953492 455.361618 626.042305 455.361618 589.631982 418.898398 589.631982 373.925383Z" p-id="3719"></path></svg>